<?xml version="1.0" encoding="UTF-8"?><svg id="a" xmlns="http://www.w3.org/2000/svg" width="1600" height="899.56" xmlns:xlink="http://www.w3.org/1999/xlink" viewBox="0 0 1600 899.56"><defs><style>.d{fill:#eee;}.e{fill:url(#b);stroke:url(#c);stroke-miterlimit:10;}</style><radialGradient id="b" cx="717.92" cy="890.27" fx="717.92" fy="890.27" r="917.17" gradientTransform="translate(-137.04 -77.31) scale(1.17)" gradientUnits="userSpaceOnUse"><stop offset="0" stop-color="#fff"/><stop offset=".12" stop-color="#f4fbff"/><stop offset=".32" stop-color="#d9f0ff"/><stop offset=".57" stop-color="#acdfff"/><stop offset=".88" stop-color="#6fc8ff"/><stop offset="1" stop-color="#55beff"/></radialGradient><radialGradient id="c" cx="800" cy="449.78" fx="800" fy="449.78" r="554.53" gradientTransform="translate(-137.04 -77.31) scale(1.17)" gradientUnits="userSpaceOnUse"><stop offset="0" stop-color="#55beff"/><stop offset=".05" stop-color="#5fc1fd"/><stop offset=".38" stop-color="#9cd4f7"/><stop offset=".66" stop-color="#c8e2f2"/><stop offset=".87" stop-color="#e3eaef"/><stop offset="1" stop-color="#eee"/></radialGradient></defs><path class="e" d="M0-.22H800s-24.6,164.06,365.45,155.86c390.04-8.2,407.61,207.93,434.55,248.1v496.04H0V-.22Z"/><path class="d" d="M0,590.87s85.51,127.84,292.83,140.91c207.32,13.07,256.52-153.89,468.52-153.89,157.55,0,298.59,117.62,447.28,166.9,43.07,14.28,87.23,23.91,131.83,25.99,70.33,3.28,125.41-13.53,179.63-72.37,49.17-53.36,79.92-127.04,79.92-208.92,0-199.07,0,415.05,0,415.05H0v-313.68Z"/></svg>