<?xml version="1.0" encoding="UTF-8"?><svg id="a" xmlns="http://www.w3.org/2000/svg" width="1367" height="769" xmlns:xlink="http://www.w3.org/1999/xlink" viewBox="0 0 1367 769"><defs><style>.d{fill:#eee;}.e{fill:url(#b);stroke:url(#c);stroke-miterlimit:10;}</style><radialGradient id="b" cx="601.42" cy="824.99" fx="601.42" fy="824.99" r="917.17" gradientTransform="matrix(1, 0, 0, 1, 0, 0)" gradientUnits="userSpaceOnUse"><stop offset="0" stop-color="#fff"/><stop offset=".12" stop-color="#f4fbff"/><stop offset=".32" stop-color="#d9f0ff"/><stop offset=".57" stop-color="#acdfff"/><stop offset=".88" stop-color="#6fc8ff"/><stop offset="1" stop-color="#55beff"/></radialGradient><radialGradient id="c" cx="683.5" cy="384.5" fx="683.5" fy="384.5" r="554.53" gradientTransform="matrix(1, 0, 0, 1, 0, 0)" gradientUnits="userSpaceOnUse"><stop offset="0" stop-color="#55beff"/><stop offset=".05" stop-color="#5fc1fd"/><stop offset=".38" stop-color="#9cd4f7"/><stop offset=".66" stop-color="#c8e2f2"/><stop offset=".87" stop-color="#e3eaef"/><stop offset="1" stop-color="#eee"/></radialGradient></defs><path class="e" d="M.5,.5H683.5s-21,140,312,133,348,177.43,371,211.72v423.28H.5V.5Z"/><path class="d" d="M.5,552.44s73,88.06,250,97.06c177,9,219-106,400-106,134.51,0,254.92,81.01,381.86,114.96,36.77,9.83,74.47,16.47,112.55,17.9,60.05,2.26,107.07-9.32,153.36-49.85,41.98-36.75,68.23-87.5,68.23-143.9,0-137.12,0,285.88,0,285.88H.5v-216.06Z"/></svg>