<?xml version="1.0" encoding="UTF-8"?><svg id="a" xmlns="http://www.w3.org/2000/svg" width="1366" height="768" xmlns:xlink="http://www.w3.org/1999/xlink" viewBox="0 0 1366 768"><defs><style>.c{fill:url(#b);}.d{fill:#eee;}</style><radialGradient id="b" cx="600.92" cy="824.49" fx="600.92" fy="824.49" r="917.17" gradientTransform="matrix(1, 0, 0, 1, 0, 0)" gradientUnits="userSpaceOnUse"><stop offset="0" stop-color="#fff"/><stop offset=".12" stop-color="#f4fbff"/><stop offset=".32" stop-color="#d9f0ff"/><stop offset=".57" stop-color="#acdfff"/><stop offset=".88" stop-color="#6fc8ff"/><stop offset="1" stop-color="#55beff"/></radialGradient></defs><path class="c" d="M0,0H683s-21,140,312,133,348,177.43,371,211.72v423.28H0V0Z"/><path class="d" d="M0,551.94s73,88.06,250,97.06c177,9,219-106,400-106,134.51,0,254.92,81.01,381.86,114.96,36.77,9.83,74.47,16.47,112.55,17.9,60.05,2.26,107.07-9.32,153.36-49.85,41.98-36.75,68.23-87.5,68.23-143.9,0-137.12,0,285.88,0,285.88H0v-216.06Z"/></svg>