<?xml version="1.0" encoding="UTF-8"?><svg id="a" xmlns="http://www.w3.org/2000/svg" width="1401" height="806" xmlns:xlink="http://www.w3.org/1999/xlink" viewBox="0 0 1401 806"><defs><style>.c{fill:url(#b);}.d{fill:#eee;}</style><radialGradient id="b" cx="618.14" cy="842.49" fx="618.14" fy="842.49" r="917.5" gradientTransform="translate(-17.42 -18.84) scale(1.02 1.05)" gradientUnits="userSpaceOnUse"><stop offset="0" stop-color="#fff"/><stop offset=".12" stop-color="#f4fbff"/><stop offset=".32" stop-color="#d9f0ff"/><stop offset=".57" stop-color="#acdfff"/><stop offset=".88" stop-color="#6fc8ff"/><stop offset="1" stop-color="#55beff"/></radialGradient></defs><path class="c" d="M0,0H699.99s-21.52,146.55,319.76,139.22c341.28-7.33,380.74,292.57,380.74,350.14l-.51,314.55H0V0Z"/><path class="d" d="M0,579.84s74.87,92.17,256.41,101.59c181.54,9.42,224.61-110.96,410.25-110.96,137.96,0,261.45,84.8,391.65,120.34,37.71,10.29,76.38,17.24,115.44,18.74,61.59,2.36,109.81-9.76,157.29-52.18,43.06-38.47,69.98-91.6,69.98-150.63,0-143.53,0,299.25,0,299.25H0v-226.16Z"/></svg>