<?xml version="1.0" encoding="UTF-8"?><svg id="a" xmlns="http://www.w3.org/2000/svg" width="769.25" height="1146.71" xmlns:xlink="http://www.w3.org/1999/xlink" viewBox="0 0 769.25 1146.71"><defs><style>.d{fill:#eee;}.e{fill:url(#b);stroke:url(#c);stroke-miterlimit:10;}</style><radialGradient id="b" cx="302.44" cy="1124.66" fx="302.44" fy="1124.66" r="917.5" gradientTransform="translate(1068.78 250.76) rotate(89.97) scale(.84 1)" gradientUnits="userSpaceOnUse"><stop offset="0" stop-color="#fff"/><stop offset=".12" stop-color="#f4fbff"/><stop offset=".32" stop-color="#d9f0ff"/><stop offset=".57" stop-color="#acdfff"/><stop offset=".88" stop-color="#6fc8ff"/><stop offset="1" stop-color="#55beff"/></radialGradient><radialGradient id="c" cx="384.55" cy="684.17" fx="384.55" fy="684.17" r="554.69" gradientTransform="translate(1068.78 250.76) rotate(89.97) scale(.84 1)" gradientUnits="userSpaceOnUse"><stop offset="0" stop-color="#55beff"/><stop offset=".05" stop-color="#5fc1fd"/><stop offset=".38" stop-color="#9cd4f7"/><stop offset=".66" stop-color="#c8e2f2"/><stop offset=".87" stop-color="#e3eaef"/><stop offset="1" stop-color="#eee"/></radialGradient></defs><path class="e" d="M768.5,.5l.25,572.54s-140.01-17.54-132.89,261.6-279.36,311.54-334.36,311.57l-300.5-.29L.5,.84l768-.34Z"/><path class="d" d="M216.56,1.74s-88.03,61.2-96.96,209.49c-8.94,148.29,106.08,183.43,106.15,335.07,.05,112.69-80.92,213.6-114.82,319.97-9.82,30.81-16.44,62.4-17.86,94.3-2.23,50.31,9.36,89.69,49.9,128.46,36.77,35.15,87.53,57.12,143.92,57.1,137.12-.06-285.88,.12-285.88,.12L.5,1.84l216.06-.09Z"/></svg>