<?xml version="1.0" encoding="UTF-8"?><svg id="a" xmlns="http://www.w3.org/2000/svg" width="769.3" height="1367.84" xmlns:xlink="http://www.w3.org/1999/xlink" viewBox="0 0 769.3 1367.84"><defs><style>.d{fill:#eee;}.e{fill:url(#b);stroke:url(#c);stroke-miterlimit:10;}</style><radialGradient id="b" cx="302.44" cy="1124.66" fx="302.44" fy="1124.66" r="917.5" gradientTransform="translate(1068.8 299.07) rotate(89.97)" gradientUnits="userSpaceOnUse"><stop offset="0" stop-color="#fff"/><stop offset=".12" stop-color="#f4fbff"/><stop offset=".32" stop-color="#d9f0ff"/><stop offset=".57" stop-color="#acdfff"/><stop offset=".88" stop-color="#6fc8ff"/><stop offset="1" stop-color="#55beff"/></radialGradient><radialGradient id="c" cx="384.55" cy="684.17" fx="384.55" fy="684.17" r="554.69" gradientTransform="translate(1068.8 299.07) rotate(89.97)" gradientUnits="userSpaceOnUse"><stop offset="0" stop-color="#55beff"/><stop offset=".05" stop-color="#5fc1fd"/><stop offset=".38" stop-color="#9cd4f7"/><stop offset=".66" stop-color="#c8e2f2"/><stop offset=".87" stop-color="#e3eaef"/><stop offset="1" stop-color="#eee"/></radialGradient></defs><path class="e" d="M768.5,.5l.3,683s-140.01-20.94-132.86,312.06c7.15,333-279.34,371.62-334.34,371.65l-300.5-.37L.5,.84l768-.34Z"/><path class="d" d="M216.56,1.74s-88.02,73.04-96.95,250.04c-8.92,177,106.1,218.95,106.17,399.95,.06,134.51-80.9,254.95-114.79,381.91-9.82,36.78-16.44,74.48-17.85,112.56-2.23,60.05,9.37,107.06,49.92,153.33,36.77,41.96,87.53,68.19,143.93,68.17,137.12-.06-285.88,.12-285.88,.12L.5,1.84l216.06-.09Z"/></svg>