<?xml version="1.0" encoding="UTF-8"?><svg id="a" xmlns="http://www.w3.org/2000/svg" width="1412.02" height="800.04" xmlns:xlink="http://www.w3.org/1999/xlink" viewBox="0 0 1412.02 800.04"><defs><style>.d{fill:url(#b);}.e,.f{fill:#eee;}.f{stroke:url(#c);stroke-miterlimit:10;}</style><radialGradient id="b" cx="646.94" cy="856.54" fx="646.94" fy="856.54" r="917.17" gradientTransform="matrix(1, 0, 0, 1, 0, 0)" gradientUnits="userSpaceOnUse"><stop offset="0" stop-color="#fff"/><stop offset=".12" stop-color="#f4fbff"/><stop offset=".32" stop-color="#d9f0ff"/><stop offset=".57" stop-color="#acdfff"/><stop offset=".88" stop-color="#6fc8ff"/><stop offset="1" stop-color="#55beff"/></radialGradient><radialGradient id="c" cx="199.6" cy="188.99" fx="199.6" fy="188.99" r="194.37" gradientTransform="matrix(1, 0, 0, 1, 0, 0)" gradientUnits="userSpaceOnUse"><stop offset="0" stop-color="#55beff"/><stop offset=".05" stop-color="#5fc1fd"/><stop offset=".38" stop-color="#9cd4f7"/><stop offset=".66" stop-color="#c8e2f2"/><stop offset=".87" stop-color="#e3eaef"/><stop offset="1" stop-color="#eee"/></radialGradient></defs><path class="d" d="M46.02,32.04H729.02s-21,140,312,133,348,177.43,371,211.72v423.28H46.02V32.04Z"/><path class="e" d="M46.02,583.99s73,88.06,250,97.06c177,9,219-106,400-106,134.51,0,254.92,81.01,381.86,114.96,36.77,9.83,74.47,16.47,112.55,17.9,60.05,2.26,107.07-9.32,153.36-49.85,41.98-36.75,68.23-87.5,68.23-143.9,0-137.12,0,285.88,0,285.88H46.02v-216.06Z"/><path class="f" d="M399.17,32.04S70.52,17.81,46.02,300.17,.52,.54,.52,.54l398.65,31.5Z"/><path class="e" d="M696.02,575.04S109.52,594.54,46.02,416.04s0,384,0,384l650-225Z"/></svg>